{
  "accessors": [
    {
      "bufferView": 2,
      "componentType": 5126,
      "count": 50935,
      "max": [
        0.8283172845840454,
        1.1063899993896484,
        1.2516529560089111
      ],
      "min": [
        -0.8281878232955933,
        -1.0680259466171265,
        -1.159995675086975
      ],
      "type": "VEC3"
    },
    {
      "bufferView": 2,
      "byteOffset": 611220,
      "componentType": 5126,
      "count": 50935,
      "max": [
        0.9999544024467468,
        0.9999875426292419,
        0.9999970197677612
      ],
      "min": [
        -0.9999344944953918,
        -0.9999852776527405,
        -0.9999199509620667
      ],
      "type": "VEC3"
    },
    {
      "bufferView": 3,
      "componentType": 5126,
      "count": 50935,
      "max": [
        0.9999977946281433,
        0.9999375939369202,
        0.9999839663505554,
        1.0
      ],
      "min": [
        -0.9999974966049194,
        -0.9999967217445374,
        -0.9999952912330627,
        -1.0
      ],
      "type": "VEC4"
    },
    {
      "bufferView": 1,
      "componentType": 5126,
      "count": 50935,
      "max": [
        0.9796900153160095,
        0.9980400204658508
      ],
      "min": [
        0.0019499999471008778,
        0.0019499999471008778
      ],
      "type": "VEC2"
    },
    {
      "bufferView": 0,
      "componentType": 5125,
      "count": 291030,
      "type": "SCALAR"
    }
  ],
  "asset": {
    "extras": {
      "author": "Diego Luján García (https://sketchfab.com/diegoluga)",
      "license": "CC-BY-4.0 (http://creativecommons.org/licenses/by/4.0/)",
      "source": "https://sketchfab.com/3d-models/skull-9118b734cc904d2db5b967a2c1b409f7",
      "title": "Skull"
    },
    "generator": "Sketchfab-12.63.0",
    "version": "2.0"
  },
  "bufferViews": [
    {
      "buffer": 0,
      "byteLength": 1164120,
      "name": "floatBufferViews",
      "target": 34963
    },
    {
      "buffer": 0,
      "byteLength": 407480,
      "byteOffset": 1164120,
      "byteStride": 8,
      "name": "floatBufferViews",
      "target": 34962
    },
    {
      "buffer": 0,
      "byteLength": 1222440,
      "byteOffset": 1571600,
      "byteStride": 12,
      "name": "floatBufferViews",
      "target": 34962
    },
    {
      "buffer": 0,
      "byteLength": 814960,
      "byteOffset": 2794040,
      "byteStride": 16,
      "name": "floatBufferViews",
      "target": 34962
    }
  ],
  "buffers": [
    {
      "byteLength": 3609000,
      "uri": "scene.bin"
    }
  ],
  "images": [
    {
      "uri": "textures/defaultMat_baseColor.jpeg"
    },
    {
      "uri": "textures/defaultMat_normal.jpeg"
    }
  ],
  "materials": [
    {
      "doubleSided": true,
      "name": "defaultMat",
      "normalTexture": {
        "index": 1
      },
      "pbrMetallicRoughness": {
        "baseColorTexture": {
          "index": 0
        },
        "metallicFactor": 0.0,
        "roughnessFactor": 0.6
      }
    }
  ],
  "meshes": [
    {
      "name": "Object_0",
      "primitives": [
        {
          "attributes": {
            "NORMAL": 1,
            "POSITION": 0,
            "TANGENT": 2,
            "TEXCOORD_0": 3
          },
          "indices": 4,
          "material": 0,
          "mode": 4
        }
      ]
    }
  ],
  "nodes": [
    {
      "children": [
        1
      ],
      "matrix": [
        0.27418965101242065,
        0.0,
        0.0,
        0.0,
        0.0,
        6.088233273358515e-17,
        -0.27418965101242065,
        0.0,
        0.0,
        0.27418965101242065,
        6.088233273358515e-17,
        0.0,
        0.0,
        0.0,
        0.0,
        1.0
      ],
      "name": "Sketchfab_model"
    },
    {
      "children": [
        2
      ],
      "name": "CANEO_decimated_100K.OBJ.cleaner.gles"
    },
    {
      "mesh": 0,
      "name": "Object_2"
    }
  ],
  "samplers": [
    {
      "magFilter": 9729,
      "minFilter": 9987,
      "wrapS": 10497,
      "wrapT": 10497
    }
  ],
  "scene": 0,
  "scenes": [
    {
      "name": "Sketchfab_Scene",
      "nodes": [
        0
      ]
    }
  ],
  "textures": [
    {
      "sampler": 0,
      "source": 0
    },
    {
      "sampler": 0,
      "source": 1
    }
  ]
}
