{
  "accessors": [
    {
      "bufferView": 2,
      "componentType": 5126,
      "count": 65532,
      "max": [
        0.5461530089378357,
        0.9819899797439575,
        0.5215290188789368
      ],
      "min": [
        -0.6078220009803772,
        -0.9981579780578613,
        -0.49272000789642334
      ],
      "type": "VEC3"
    },
    {
      "bufferView": 2,
      "byteOffset": 786384,
      "componentType": 5126,
      "count": 65532,
      "max": [
        0.9999931454658508,
        0.999711275100708,
        0.9999871253967285
      ],
      "min": [
        -0.9999791979789734,
        -0.9999995827674866,
        -0.9999953508377075
      ],
      "type": "VEC3"
    },
    {
      "bufferView": 1,
      "componentType": 5126,
      "count": 65532,
      "max": [
        0.99951171875,
        0.9990234375
      ],
      "min": [
        0.0002180337905883789,
        0.0010900497436523438
      ],
      "type": "VEC2"
    },
    {
      "bufferView": 0,
      "componentType": 5125,
      "count": 331494,
      "type": "SCALAR"
    },
    {
      "bufferView": 2,
      "byteOffset": 1572768,
      "componentType": 5126,
      "count": 65532,
      "max": [
        0.5404130220413208,
        0.9807050228118896,
        0.5273979902267456
      ],
      "min": [
        -0.5918239951133728,
        -0.9946079850196838,
        -0.5023149847984314
      ],
      "type": "VEC3"
    },
    {
      "bufferView": 2,
      "byteOffset": 2359152,
      "componentType": 5126,
      "count": 65532,
      "max": [
        0.9999935030937195,
        0.9999871253967285,
        0.9999950528144836
      ],
      "min": [
        -0.9999998807907104,
        -0.9997917413711548,
        -0.9999803900718689
      ],
      "type": "VEC3"
    },
    {
      "bufferView": 1,
      "byteOffset": 524256,
      "componentType": 5126,
      "count": 65532,
      "max": [
        0.9990234375,
        0.99853515625
      ],
      "min": [
        0.0030384063720703125,
        0.001617431640625
      ],
      "type": "VEC2"
    },
    {
      "bufferView": 0,
      "byteOffset": 1325976,
      "componentType": 5125,
      "count": 329202,
      "type": "SCALAR"
    },
    {
      "bufferView": 2,
      "byteOffset": 3145536,
      "componentType": 5126,
      "count": 65532,
      "max": [
        0.607774019241333,
        0.9721810221672058,
        0.508637011051178
      ],
      "min": [
        -0.5949079990386963,
        -0.99726402759552,
        -0.5078259706497192
      ],
      "type": "VEC3"
    },
    {
      "bufferView": 2,
      "byteOffset": 3931920,
      "componentType": 5126,
      "count": 65532,
      "max": [
        0.9999933242797852,
        0.9992929697036743,
        0.9999982118606567
      ],
      "min": [
        -0.9999707341194153,
        -0.9999899864196777,
        -0.9999957084655762
      ],
      "type": "VEC3"
    },
    {
      "bufferView": 1,
      "byteOffset": 1048512,
      "componentType": 5126,
      "count": 65532,
      "max": [
        1.0,
        0.9990234375
      ],
      "min": [
        0.00012791156768798828,
        0.0010013580322265625
      ],
      "type": "VEC2"
    },
    {
      "bufferView": 0,
      "byteOffset": 2642784,
      "componentType": 5125,
      "count": 312330,
      "type": "SCALAR"
    },
    {
      "bufferView": 2,
      "byteOffset": 4718304,
      "componentType": 5126,
      "count": 61839,
      "max": [
        0.6087279915809631,
        0.9763370156288147,
        0.5217229723930359
      ],
      "min": [
        -0.6077920198440552,
        -0.9970629811286926,
        -0.5070040225982666
      ],
      "type": "VEC3"
    },
    {
      "bufferView": 2,
      "byteOffset": 5460372,
      "componentType": 5126,
      "count": 61839,
      "max": [
        0.9999931454658508,
        0.9996283054351807,
        0.9999839663505554
      ],
      "min": [
        -0.9999998807907104,
        -0.9999995827674866,
        -0.9999953508377075
      ],
      "type": "VEC3"
    },
    {
      "bufferView": 1,
      "byteOffset": 1572768,
      "componentType": 5126,
      "count": 61839,
      "max": [
        1.0,
        1.0
      ],
      "min": [
        5.185604095458984e-06,
        0.0001499652862548828
      ],
      "type": "VEC2"
    },
    {
      "bufferView": 0,
      "byteOffset": 3892104,
      "componentType": 5125,
      "count": 199206,
      "type": "SCALAR"
    }
  ],
  "asset": {
    "extras": {
      "author": "poojadevi19871987 (https://sketchfab.com/poojadevi19871987)",
      "license": "CC-BY-4.0 (http://creativecommons.org/licenses/by/4.0/)",
      "source": "https://sketchfab.com/3d-models/a-creepy-doll-d8933af0296a4d348a36cc9a5ca631c0",
      "title": "a creepy doll"
    },
    "generator": "Sketchfab-16.63.0",
    "version": "2.0"
  },
  "bufferViews": [
    {
      "buffer": 0,
      "byteLength": 4688928,
      "name": "floatBufferViews",
      "target": 34963
    },
    {
      "buffer": 0,
      "byteLength": 2067480,
      "byteOffset": 4688928,
      "byteStride": 8,
      "name": "floatBufferViews",
      "target": 34962
    },
    {
      "buffer": 0,
      "byteLength": 6202440,
      "byteOffset": 6756408,
      "byteStride": 12,
      "name": "floatBufferViews",
      "target": 34962
    }
  ],
  "buffers": [
    {
      "byteLength": 12958848,
      "uri": "scene.bin"
    }
  ],
  "images": [
    {
      "uri": "textures/material_0_baseColor.jpeg"
    }
  ],
  "materials": [
    {
      "doubleSided": true,
      "name": "material_0",
      "pbrMetallicRoughness": {
        "baseColorTexture": {
          "index": 0
        },
        "metallicFactor": 0.0,
        "roughnessFactor": 0.8
      }
    }
  ],
  "meshes": [
    {
      "name": "Object_0",
      "primitives": [
        {
          "attributes": {
            "NORMAL": 1,
            "POSITION": 0,
            "TEXCOORD_0": 2
          },
          "indices": 3,
          "material": 0,
          "mode": 4
        }
      ]
    },
    {
      "name": "Object_1",
      "primitives": [
        {
          "attributes": {
            "NORMAL": 5,
            "POSITION": 4,
            "TEXCOORD_0": 6
          },
          "indices": 7,
          "material": 0,
          "mode": 4
        }
      ]
    },
    {
      "name": "Object_2",
      "primitives": [
        {
          "attributes": {
            "NORMAL": 9,
            "POSITION": 8,
            "TEXCOORD_0": 10
          },
          "indices": 11,
          "material": 0,
          "mode": 4
        }
      ]
    },
    {
      "name": "Object_3",
      "primitives": [
        {
          "attributes": {
            "NORMAL": 13,
            "POSITION": 12,
            "TEXCOORD_0": 14
          },
          "indices": 15,
          "material": 0,
          "mode": 4
        }
      ]
    }
  ],
  "nodes": [
    {
      "children": [
        1
      ],
      "matrix": [
        1.0,
        0.0,
        0.0,
        0.0,
        0.0,
        2.220446049250313e-16,
        -1.0,
        0.0,
        0.0,
        1.0,
        2.220446049250313e-16,
        0.0,
        0.0,
        0.0,
        0.0,
        1.0
      ],
      "name": "Sketchfab_model"
    },
    {
      "children": [
        2
      ],
      "name": "root"
    },
    {
      "children": [
        3
      ],
      "matrix": [
        1.0,
        0.0,
        0.0,
        0.0,
        0.0,
        2.220446049250313e-16,
        1.0,
        0.0,
        0.0,
        -1.0,
        2.220446049250313e-16,
        0.0,
        0.0,
        0.0,
        0.0,
        1.0
      ],
      "name": "GLTF_SceneRootNode"
    },
    {
      "children": [
        4,
        5,
        6,
        7
      ],
      "name": "_0"
    },
    {
      "mesh": 0,
      "name": "Object_4"
    },
    {
      "mesh": 1,
      "name": "Object_5"
    },
    {
      "mesh": 2,
      "name": "Object_6"
    },
    {
      "mesh": 3,
      "name": "Object_7"
    }
  ],
  "samplers": [
    {
      "magFilter": 9729,
      "minFilter": 9987,
      "wrapS": 10497,
      "wrapT": 10497
    }
  ],
  "scene": 0,
  "scenes": [
    {
      "name": "Sketchfab_Scene",
      "nodes": [
        0
      ]
    }
  ],
  "textures": [
    {
      "sampler": 0,
      "source": 0
    }
  ]
}
